<svg width="29" height="28" viewBox="0 0 29 28" fill="none" xmlns="http://www.w3.org/2000/svg">
<path d="M12.2344 0H16.7656C17.5189 0 18.125 0.585156 18.125 1.3125V10.5H23.0924C24.1006 10.5 24.6047 11.6758 23.891 12.3648L15.276 20.6883C14.8512 21.0984 14.1545 21.0984 13.7297 20.6883L5.10332 12.3648C4.38965 11.6758 4.89375 10.5 5.90195 10.5H10.875V1.3125C10.875 0.585156 11.4811 0 12.2344 0ZM29 20.5625V26.6875C29 27.4148 28.3939 28 27.6406 28H1.35938C0.606055 28 0 27.4148 0 26.6875V20.5625C0 19.8352 0.606055 19.25 1.35938 19.25H9.66855L12.4439 21.9297C13.5824 23.0289 15.4176 23.0289 16.5561 21.9297L19.3314 19.25H27.6406C28.3939 19.25 29 19.8352 29 20.5625ZM21.9766 25.375C21.9766 24.7734 21.4668 24.2812 20.8438 24.2812C20.2207 24.2812 19.7109 24.7734 19.7109 25.375C19.7109 25.9766 20.2207 26.4688 20.8438 26.4688C21.4668 26.4688 21.9766 25.9766 21.9766 25.375ZM25.6016 25.375C25.6016 24.7734 25.0918 24.2812 24.4688 24.2812C23.8457 24.2812 23.3359 24.7734 23.3359 25.375C23.3359 25.9766 23.8457 26.4688 24.4688 26.4688C25.0918 26.4688 25.6016 25.9766 25.6016 25.375Z" fill="#FAFAFA" fill-opacity="0.8"/>
</svg>
