<svg width="30" height="30" viewBox="0 0 30 30" fill="none" xmlns="http://www.w3.org/2000/svg">
<path d="M29.6536 0.364024C29.4847 0.196124 29.2713 0.0798769 29.0385 0.0289497C28.8058 -0.0219775 28.5633 -0.00546734 28.3396 0.0765392L0.807627 10.076C0.570187 10.166 0.365765 10.3259 0.221511 10.5347C0.0772578 10.7434 0 10.9911 0 11.2447C0 11.4984 0.0772578 11.746 0.221511 11.9547C0.365765 12.1635 0.570187 12.3235 0.807627 12.4134L11.5576 16.7007L19.4918 8.75109L21.2564 10.5135L13.2846 18.4756L17.5896 29.2125C17.6823 29.4451 17.8429 29.6445 18.0504 29.7849C18.2579 29.9253 18.5028 30.0002 18.7534 30C19.0063 29.9948 19.2517 29.9132 19.4573 29.7659C19.6628 29.6187 19.8188 29.4127 19.9048 29.175L29.9164 1.67646C30.0017 1.45531 30.0222 1.21452 29.9757 0.982147C29.9292 0.749776 29.8175 0.535403 29.6536 0.364024Z" fill="#FAFAFA" fill-opacity="0.8"/>
</svg>
